{"title":"[ShepardTDS] Campione! Dual Audio [720p 8-bit x265 HEVC] 1-13 Co","uid":12642264,"size":2772184162,"categoryP":"video","categoryS":"tv_shows","magnet":"?xt=urn:btih:609fe26ca1a30d2dc799515da34939c60348be8a&amp;dn=%5BShepardTDS%5D+Campione%21+Dual+Audio+%5B720p+8-bit+x265+HEVC%5D+1-13+Co&amp;tr=udp%3A%2F%2Ftracker.leechers-paradise.org%3A6969&amp;tr=udp%3A%2F%2Fzer0day.ch%3A1337&amp;tr=udp%3A%2F%2Fopen.demonii.com%3A1337&amp;tr=udp%3A%2F%2Ftracker.coppersurfer.tk%3A6969&amp;tr=udp%3A%2F%2Fexodus.desync.com%3A6969","seeders":5,"leechers":1,"uploader":"ShepardTDS","files":13,"time":1446009234,"description":"Constant Quality encoding.\r\nVariable Bit rates\r\n\r\n\r\nGeneral\r\n\r\nFormat : Matroska\r\nFile size : 176 MiB-287 MiB\r\nDuration : 25mn 14s\r\nOverall bit rate : 1,014 kbps-1,588 Kbps\r\nEncoded date : UTC 2015-10-26 00:42:18\r\nWriting application : mkvmerge v7.7.0 ('Six Voices') 32bit built on Feb :23:00\r\nWriting library : libebml v1.3.1 + libmatroska v1.4.2\r\n\r\nVideo\r\nID : 1\r\nFormat : V_MPEGH/ISO/HEVC\r\nCodec ID : V_MPEGH/ISO/HEVC\r\nDuration : 25mn 14s\r\nBit rate : 610 kbps-1,172 Kbps\r\nWidth : 1 280 pixels\r\nHeight : 720 pixels\r\nDisplay aspect ratio : 16:9\r\nFrame rate : 23.976 fps\r\nBits/(Pixel*Frame) : 0.053\r\nStream size : 212 MiB (74%)\r\n\r\nAudio #1\r\nID : 2\r\nFormat : AC-3\r\nFormat/Info : Audio Coding 3\r\nMode extension : CM (complete main)\r\nCodec ID : A_AC3\r\nDuration : 25mn 14s\r\nBit rate mode : Constant\r\nBit rate : 192 Kbps\r\nChannel(s) : 2 channels\r\nChannel positions : Front: L R\r\nSampling rate : 48.0 KHz\r\nBit depth : 16 bits\r\nCompression mode : Lossy\r\nStream size : 34.7 MiB (12%)\r\nLanguage : English\r\n\r\nAudio #2\r\nID : 3\r\nFormat : AC-3\r\nFormat/Info : Audio Coding 3\r\nMode extension : CM (complete main)\r\nCodec ID : A_AC3\r\nDuration : 25mn 14s\r\nBit rate mode : Constant\r\nBit rate : 192 Kbps\r\nChannel(s) : 2 channels\r\nChannel positions : Front: L R\r\nSampling rate : 48.0 KHz\r\nBit depth : 16 bits\r\nCompression mode : Lossy\r\nStream size : 34.7 MiB (12%)\r\nLanguage : Japanese\r\n\r\nText #1\r\nID : 4\r\nFormat : ASS\r\nCodec ID : S_TEXT/ASS\r\nCodec ID/Info : Advanced Sub Station Alpha\r\nCompression mode : Lossless\r\nTitle : Signs/Songs [FFF]\r\nLanguage : English\r\n\r\nText #2\r\nID : 5\r\nFormat : ASS\r\nCodec ID : S_TEXT/ASS\r\nCodec ID/Info : Advanced Sub Station Alpha\r\nCompression mode : Lossless\r\nTitle : Dialogue [FFF]\r\nLanguage : English\r\n\r\nMenu\r\n00:00:00.000 : en:Prologue\r\n00:02:18.013 : en:Part A\r\n00:11:11.004 : en:Part B\r\n00:23:31.994 : en:Ending\r\n00:25:02.000 : en:Preview","torrent":{"xt":"urn:btih:609fe26ca1a30d2dc799515da34939c60348be8a","amp;dn":"%5BShepardTDS%5D+Campione%21+Dual+Audio+%5B720p+8-bit+x265+HEVC%5D+1-13+Co","amp;tr":["udp%3A%2F%2Ftracker.leechers-paradise.org%3A6969","udp%3A%2F%2Fzer0day.ch%3A1337","udp%3A%2F%2Fopen.demonii.com%3A1337","udp%3A%2F%2Ftracker.coppersurfer.tk%3A6969","udp%3A%2F%2Fexodus.desync.com%3A6969"],"infoHash":"609fe26ca1a30d2dc799515da34939c60348be8a","infoHashBuffer":{"type":"Buffer","data":[96,159,226,108,161,163,13,45,199,153,81,93,163,73,57,198,3,72,190,138]},"announce":[],"urlList":[]}}